# xmcd
#
# Track frame offsets:
#	150
#	10273
#	20768
#	32392
#	40959
#	50214
#	57939
#	74354
#	90261
#	110200
#	130218
#	160891
#	182531
#
# Disc length: 2694 seconds
#
# Revision: 1
# Processed by: cddbd v1.5.2PL0 Copyright (c) Steve Scherf et al.
# Submitted via: audiograbber 1.83.01
#
DISCID=ad0a840d
DTITLE=Dino - Gaston Ciarlo - Antologia
DYEAR=1900
DGENRE=
TTITLE0=Viento del Sur
TTITLE1=Noche de Lluvia
TTITLE2=Solo Creo en Ti
TTITLE3=Estandar
TTITLE4=Tu y Yo
TTITLE5=Una Tarde Tranquila
TTITLE6=Mi Cuidad
TTITLE7=Pasa el Tiempo
TTITLE8=Hoy Quiero Cantarle al Vino
TTITLE9=Baguala del Inmigrante
TTITLE10=Momentos
TTITLE11=Cruzar el Rio
TTITLE12=Soplando en el Viento
EXTD=
EXTT0=
EXTT1=
EXTT2=
EXTT3=
EXTT4=
EXTT5=
EXTT6=
EXTT7=
EXTT8=
EXTT9=
EXTT10=
EXTT11=
EXTT12=
PLAYORDER=
